<svg width="400" height="400" viewBox="0 0 400 400" fill="none" xmlns="http://www.w3.org/2000/svg">
<path d="M0 200C0 89.5431 89.5431 0 200 0V0C310.457 0 400 89.5431 400 200V200C400 310.457 310.457 400 200 400V400C89.5431 400 0 310.457 0 200V200Z" fill="white" fill-opacity="0.83"/>
<path d="M129.205 305H270.75V268.489H173.489V218.477H263.08V181.966H173.489V132.057H270.341V95.5454L129.205 95.5454V305Z" fill="#FFE022"/>
<rect x="129" y="132" width="45" height="50" fill="white" fill-opacity="0.83"/>
<rect x="129" y="132" width="45" height="50" fill="white" fill-opacity="0.83"/>
<rect x="129" y="132" width="45" height="50" fill="white" fill-opacity="0.83"/>
<rect x="129" y="132" width="45" height="50" fill="white" fill-opacity="0.83"/>
<rect x="129" y="219" width="45" height="49" fill="white" fill-opacity="0.83"/>
<rect x="129" y="219" width="45" height="49" fill="white" fill-opacity="0.83"/>
</svg>
